<svg xmlns="http://www.w3.org/2000/svg" xmlns:xlink="http://www.w3.org/1999/xlink" width="93.932" height="94.629" viewBox="0 0 93.932 94.629">
  <defs>
    <filter id="Path_2" x="5.264" y="1.378" width="88.667" height="93.251" filterUnits="userSpaceOnUse">
      <feOffset dy="3" input="SourceAlpha"/>
      <feGaussianBlur stdDeviation="3" result="blur"/>
      <feFlood flood-opacity="0.937"/>
      <feComposite operator="in" in2="blur"/>
      <feComposite in="SourceGraphic"/>
    </filter>
    <filter id="Path_3" x="0" y="17.607" width="83.52" height="50.867" filterUnits="userSpaceOnUse">
      <feOffset dy="3" input="SourceAlpha"/>
      <feGaussianBlur stdDeviation="3" result="blur-2"/>
      <feFlood flood-opacity="0.937"/>
      <feComposite operator="in" in2="blur-2"/>
      <feComposite in="SourceGraphic"/>
    </filter>
    <filter id="Path_4" x="8.222" y="25.268" width="66.784" height="43.458" filterUnits="userSpaceOnUse">
      <feOffset dy="3" input="SourceAlpha"/>
      <feGaussianBlur stdDeviation="3" result="blur-3"/>
      <feFlood flood-opacity="0.937"/>
      <feComposite operator="in" in2="blur-3"/>
      <feComposite in="SourceGraphic"/>
    </filter>
    <filter id="Path_5" x="21.673" y="15.523" width="40.021" height="59.728" filterUnits="userSpaceOnUse">
      <feOffset dy="3" input="SourceAlpha"/>
      <feGaussianBlur stdDeviation="3" result="blur-4"/>
      <feFlood flood-opacity="0.937"/>
      <feComposite operator="in" in2="blur-4"/>
      <feComposite in="SourceGraphic"/>
    </filter>
  </defs>
  <g id="Logo" transform="translate(-44.448 1.578)">
    <path id="Path_1" data-name="Path 1" d="M894.4,77.541a26.309,26.309,0,1,1,34.281-39.918" transform="translate(-800.23 5.729)" fill="#f5f5f5" stroke="#717171" stroke-miterlimit="10" stroke-width="3"/>
    <g transform="matrix(1, 0, 0, 1, 44.45, -1.58)" filter="url(#Path_2)">
      <path id="Path_2-2" data-name="Path 2" d="M931.128,38.725a26.309,26.309,0,0,1-34.281,39.918" transform="translate(-847.22 5.67)" fill="#f5f5f5" stroke="#6f05ff" stroke-miterlimit="10" stroke-width="6"/>
    </g>
    <g transform="matrix(1, 0, 0, 1, 44.45, -1.58)" filter="url(#Path_3)">
      <path id="Path_3-2" data-name="Path 3" d="M901.978,69.376l6.513-18.34a1.393,1.393,0,0,1,1.276-.985h0a1.492,1.492,0,0,1,1.378,1.584V58.09a.418.418,0,0,1-.026.144L906.159,71.6a1.389,1.389,0,0,1-1.268.963h-5.909a1.38,1.38,0,0,1-1.249-.913l-7.877-19.348A1.583,1.583,0,0,1,891.1,50.05h3.549a1.4,1.4,0,0,1,1.288,1.023l6.036,18.3ZM929.716,50.05h3.517a1.586,1.586,0,0,1,1.234,2.29l-8.382,19.349a1.372,1.372,0,0,1-1.234.878h-5.867a1.391,1.391,0,0,1-1.276-.986l-4.527-12.767a.452.452,0,0,1-.026-.151V51.634a1.492,1.492,0,0,1,1.378-1.584h.023a1.4,1.4,0,0,1,1.288,1.023l6.036,18.3,6.561-18.344A1.392,1.392,0,0,1,929.716,50.05Z" transform="translate(-845.66 3.19)" fill="#6f05ff"/>
    </g>
    <g transform="matrix(1, 0, 0, 1, 44.45, -1.58)" filter="url(#Path_4)">
      <path id="Path_4-2" data-name="Path 4" d="M910.922,73.469a1.031,1.031,0,0,0,.948.743h0a1.1,1.1,0,0,0,1.017-1.17V67.928L909.176,57.5a1.029,1.029,0,0,0-.942-.727h-4.377a1.022,1.022,0,0,0-.929.691l-5.9,15.1a1.166,1.166,0,0,0,.928,1.649h2.669a1.037,1.037,0,0,0,.957-.771l4.492-14.2Zm15.773.743h2.647a1.17,1.17,0,0,0,.918-1.674l-6.276-15.1a1.018,1.018,0,0,0-.919-.666h-4.346a1.03,1.03,0,0,0-.948.744l-3.39,9.965v5.562a1.1,1.1,0,0,0,1.018,1.17h.017a1.036,1.036,0,0,0,.957-.771l4.493-14.2,4.882,14.229A1.031,1.031,0,0,0,926.7,74.213Z" transform="translate(-847.24 1.72)"/>
    </g>
    <g transform="matrix(1, 0, 0, 1, 44.45, -1.58)" filter="url(#Path_5)">
      <path id="Path_5-2" data-name="Path 5" d="M916.578,75.274l-6.5-9.844,2.2-14.153A2.1,2.1,0,0,1,914.36,49.5H918.8a2.1,2.1,0,0,1,2.072,1.775l2.205,14.154Z" transform="translate(-850.12 3.31)" stroke="#6f05ff" stroke-miterlimit="10" stroke-width="2"/>
    </g>
    <text id="WM" transform="translate(108.568 61.018)" fill="#f5f5f5" font-size="2" font-family="AllertaStencil-Regular, Allerta Stencil" text-decoration="underline"><tspan x="0" y="0">WM</tspan></text>
  </g>
</svg>
